<?xml version="1.0" encoding="utf-8"?>
<!-- Generator: Adobe Illustrator 16.0.3, SVG Export Plug-In . SVG Version: 6.00 Build 0)  -->
<!DOCTYPE svg PUBLIC "-//W3C//DTD SVG 1.1//EN" "http://www.w3.org/Graphics/SVG/1.1/DTD/svg11.dtd">
<svg version="1.1" id="Layer_1" xmlns="http://www.w3.org/2000/svg" xmlns:xlink="http://www.w3.org/1999/xlink" x="0px" y="0px"
	 width="203.438px" height="49.197px" viewBox="0 0 203.438 49.197" style="enable-background:new 0 0 203.438 49.197;"
	 xml:space="preserve">
<style type="text/css">
<![CDATA[
	.st0{fill:#0069AA;}
	.st1{fill:#00BAE6;}
]]>
</style>
<path class="st1" d="M28.888,12.695h-2.821l-1.047,4.216h1.364c1.604,0,2.903,1.063,2.52,2.82c-0.384,1.757-0.443,1.88-0.944,3.95
	c-0.584,2.415-1.755,3.238-3.8,3.9L8.815,32.498l-1.55,6.172c0,0,13.764-4.369,18.041-5.734c4.737-1.512,7.258-3.426,8.111-6.392
	c0.262-0.913,0.807-2.964,1.337-5.441C35.875,15.853,32.353,12.695,28.888,12.695"/>
<path class="st1" d="M8.636,12.695l-1.033,4.216h5.117L9.286,30.629l6.715-2.149l2.598-10.42c0.12-0.519-0.526-1.148-0.526-1.148
	h5.255l1.057-4.216H8.636z"/>
<polygon class="st1" points="194.347,49.197 0,47.167 0.026,47.053 192.513,47.031 203.325,3.523 203.438,3.523 "/>
<path class="st0" d="M189.989,14.604c0.308,0,0.576-0.021,0.576-0.384c0-0.29-0.262-0.356-0.517-0.356h-0.485v0.74H189.989z
	 M189.563,15.939H189.2v-2.376h0.908c0.559,0,0.838,0.207,0.838,0.678c0,0.425-0.27,0.607-0.619,0.651l0.672,1.047H190.6
	l-0.624-1.029h-0.412V15.939z M190,16.466c0.925,0,1.661-0.73,1.661-1.719c0-0.976-0.736-1.707-1.661-1.707
	c-0.943,0-1.687,0.73-1.687,1.707C188.313,15.735,189.057,16.466,190,16.466 M187.901,14.747c0-1.183,0.963-2.052,2.099-2.052
	c1.121,0,2.077,0.869,2.077,2.052c0,1.193-0.956,2.061-2.077,2.061C188.864,16.808,187.901,15.939,187.901,14.747"/>
<path class="st0" d="M69.95,17.797h-2.683c-6.992,0-8.475,4.505-9.517,8.771c-0.686,2.769-0.793,5.543,0.184,7.58
	c0.951,1.979,2.929,3.261,6.1,3.261l8.037-0.004l1.056-4.271h-6.929c-3.029,0-4.364-0.633-3.349-4.807h11.48
	c0,0,0.392-1.585,0.713-2.884C75.996,21.579,74.07,17.797,69.95,17.797 M70.535,25.062h-6.859c0.674-2.861,1.602-3.588,3.812-3.588
	h0.604C71.541,21.474,70.535,25.062,70.535,25.062"/>
<path class="st0" d="M112.482,22.567c-0.489,1.968-3.705,14.84-3.705,14.84h-5.633c0,0,3.065-12.265,3.499-14.026
	c0.314-1.271-0.277-1.764-1.327-1.764h-4.671c0,0,0.679,0.618,0.52,1.25c-0.16,0.631-3.63,14.54-3.63,14.54h-5.634l5.575-22.363
	c0.278-1.17-0.863-2.349-0.863-2.349h7.085l-1.27,5.114h6.483C112.372,17.81,113.151,19.872,112.482,22.567"/>
<path class="st0" d="M55.054,16.9c0,0,0.664,0.596,0.504,1.246s-4.806,19.262-4.806,19.262h-6.457L49.412,16.9h-7.5l1.04-4.205
	h20.757L62.66,16.9H55.054z"/>
<path class="st0" d="M134.111,12.695h-14.14c0,0,1.08,1.142,0.865,2.325c-0.796,3.095-5.58,22.388-5.58,22.388h13.534
	c4.743,0,6.819-2.359,8.106-5.421c1.287-3.047,2.541-8.422,3.074-10.898C141.108,15.83,137.572,12.695,134.111,12.695
	 M134.031,19.721c-0.421,1.725-1.987,8.078-2.534,10.215c-0.609,2.383-1.585,3.2-3.838,3.2l-4.91-0.002
	c0,0,3.571-14.289,3.732-14.939c0.16-0.649-0.508-1.295-0.508-1.295h5.41C133.069,16.9,134.457,17.975,134.031,19.721"/>
<path class="st0" d="M153.989,17.802h-10.231l-0.944,3.816h7.616c0.884,0,1.647,0.527,1.377,1.603l-0.229,0.918h-4.192
	c-2.968,0-6.833,1.127-8.077,5.96c-0.061,0.237-0.111,0.468-0.158,0.695c-0.082,0.391-0.131,0.796-0.131,1.215
	c0,3.106,2.787,5.399,5.418,5.399h9.394c0,0,3.032-12.223,3.696-14.879C158.192,19.862,157.358,17.802,153.989,17.802
	 M149.338,33.137h-3.229c-1.606,0-2.947-0.602-2.396-2.822c0.556-2.237,2.08-2.671,3.536-2.671h3.453L149.338,33.137z"/>
<path class="st0" d="M184.813,17.802h-10.231l-0.944,3.816h7.615c0.885,0,1.649,0.527,1.379,1.603l-0.229,0.918h-4.193
	c-2.968,0-6.833,1.127-8.077,5.96c-0.061,0.237-0.111,0.468-0.158,0.695c-0.082,0.391-0.131,0.796-0.131,1.215
	c0,3.106,2.787,5.399,5.418,5.399h3.84h5.554c0,0,3.032-12.223,3.696-14.879C189.017,19.862,188.183,17.802,184.813,17.802
	 M180.162,33.137h-3.229c-1.606,0-2.947-0.602-2.396-2.822c0.556-2.237,2.08-2.671,3.536-2.671h3.454L180.162,33.137z"/>
<path class="st0" d="M82.304,26.637c0.96-3.769,2.614-5.021,4.824-5.021l6.176,0.001l0.945-3.82h-8.048
	c-6.992,0-8.475,4.506-9.518,8.772c-0.686,2.769-0.792,5.542,0.185,7.58c0.95,1.979,2.929,3.261,6.1,3.261l6.421-0.005l1.043-4.27
	c0,0-4.766,0.005-5.437,0.005C81.592,33.14,81.344,30.404,82.304,26.637"/>
<path class="st0" d="M165.184,33.135h3.042l-1.057,4.273h-6.842c-1.201,0-2.414-0.986-1.933-2.973
	c0.383-1.595,3.192-12.816,3.192-12.816h-2.486l0.945-3.816h2.502l0.363-1.471c0.271-1.098-0.863-2.33-0.863-2.33h6.994
	l-0.949,3.808h3.603l-0.997,3.81h-4.361c0,0,0.645,0.646,0.502,1.242c-0.065,0.268-1.827,7.286-2.291,9.141
	C164.411,32.544,164.469,33.135,165.184,33.135"/>
</svg>
